HIERARCHY
ROOT Hips
{
	OFFSET -3.958830 18.904000 13.208200
	CHANNELS 6 Xposition Yposition Zposition Zrotation Yrotation Xrotation 
	JOINT LHipJoint
	{
		OFFSET 0.000000 0.000000 0.000000
		CHANNELS 3 Zrotation Yrotation Xrotation
		JOINT LeftUpLeg
		{
			OFFSET 1.800000 -1.400000 0.085000
			CHANNELS 3 Zrotation Yrotation Xrotation
			JOINT LeftLeg
			{
				OFFSET 2.215000 -6.000000 0.000000
				CHANNELS 3 Zrotation Yrotation Xrotation
				JOINT LeftFoot
				{
					OFFSET 2.500000 -6.900000 0.000000
					CHANNELS 3 Zrotation Yrotation Xrotation
					JOINT LeftToeBase
					{
						OFFSET 0.200000 -0.500000 1.950000
						CHANNELS 3 Zrotation Yrotation Xrotation
						End Site
						{
							OFFSET 0.000000 0.000000 0.000000
						}
					}
				}
			}
		}
	}
	JOINT RHipJoint
	{
		OFFSET 0.000000 0.000000 0.000000
		CHANNELS 3 Zrotation Yrotation Xrotation
		JOINT RightUpLeg
		{
			OFFSET -1.800000 -1.400000 0.085000
			CHANNELS 3 Zrotation Yrotation Xrotation
			JOINT RightLeg
			{
				OFFSET -2.215000 -6.000000 0.000000
				CHANNELS 3 Zrotation Yrotation Xrotation
				JOINT RightFoot
				{
					OFFSET -2.500000 -6.900000 0.000000
					CHANNELS 3 Zrotation Yrotation Xrotation
					JOINT RightToeBase
					{
						OFFSET -0.200000 -0.500000 1.950000
						CHANNELS 3 Zrotation Yrotation Xrotation
						End Site
						{
							OFFSET 0.000000 0.000000 0.000000
						}
					}
				}
			}
		}
	}
	JOINT LowerBack
	{
		OFFSET 0.000000 0.000000 0.000000
		CHANNELS 3 Zrotation Yrotation Xrotation
		JOINT Spine
		{
			OFFSET -0.087000 1.940000 -0.288900
			CHANNELS 3 Zrotation Yrotation Xrotation
			JOINT Spine1
			{
				OFFSET 0.000000 1.950000 0.060000
				CHANNELS 3 Zrotation Yrotation Xrotation
				JOINT Neck
				{
					OFFSET 0.000000 0.000000 0.000000
					CHANNELS 3 Zrotation Yrotation Xrotation
					JOINT Neck1
					{
						OFFSET 0.000000 1.600000 0.340000
						CHANNELS 3 Zrotation Yrotation Xrotation
						JOINT Head
						{
							OFFSET 0.000000 1.667000 -0.240000
							CHANNELS 3 Zrotation Yrotation Xrotation
							End Site
							{
								OFFSET 0.000000 0.000000 0.000000
							}
						}
					}
				}
				JOINT LeftShoulder
				{
					OFFSET 0.000000 0.000000 0.000000
					CHANNELS 3 Zrotation Yrotation Xrotation
					JOINT LeftArm
					{
						OFFSET 2.700000 1.550000 -0.730000
						CHANNELS 3 Zrotation Yrotation Xrotation
						JOINT LeftForeArm
						{
							OFFSET 5.450000 0.000000 0.000000
							CHANNELS 3 Zrotation Yrotation Xrotation
							JOINT LeftHand
							{
								OFFSET 3.450000 0.000000 0.000000
								CHANNELS 3 Zrotation Yrotation Xrotation
								JOINT LeftHandIndex1
								{
									OFFSET 0.750000 0.000000 0.000000
									CHANNELS 3 Zrotation Yrotation Xrotation
									End Site
									{
										OFFSET 0.000000 0.000000 0.000000
									}
								}
							}
						}
					}
				}
				JOINT RightShoulder
				{
					OFFSET 0.000000 0.000000 0.000000
					CHANNELS 3 Zrotation Yrotation Xrotation
					JOINT RightArm
					{
						OFFSET -2.700000 1.550000 -0.730000
						CHANNELS 3 Zrotation Yrotation Xrotation
						JOINT RightForeArm
						{
							OFFSET -5.450000 0.000000 0.000000
							CHANNELS 3 Zrotation Yrotation Xrotation
							JOINT RightHand
							{
								OFFSET -3.450000 0.000000 0.000000
								CHANNELS 3 Zrotation Yrotation Xrotation
								JOINT RightHandIndex1
								{
									OFFSET -0.750000 0.000000 0.000000
									CHANNELS 3 Zrotation Yrotation Xrotation
									End Site
									{
										OFFSET 0.000000 0.000000 0.000000
									}
								}
							}
						}
					}
				}
			}
		}
	}
}
MOTION
Frames: 4
Frame Time: 0.016667
0.075230 17.284200 -1.206090 -3.855667 -2.547425 8.230606 -15.169188 12.564356 2.855667 -0.151179 -0.947700 -7.943583 -4.634510 3.091951 1.219740 -0.843077 4.374070 3.604900 0.044500 -0.395210 -0.274260 18.466055 -10.658261 2.968067 0.715542 0.394978 -8.050179 8.279372 -4.721707 2.718221 -0.484963 -4.096890 2.979292 -0.021540 1.288920 1.037970 -3.841367 -0.732402 -6.943211 9.084615 1.572225 1.533305 -2.328634 0.880835 6.675757 3.221205 -0.575431 -8.812312 -0.904455 6.381654 24.935657 -4.858540 5.401090 -5.579330 -17.852957 -9.115861 3.604215 -54.493873 -9.172489 1.119737 -23.332485 -19.295883 1.044567 -4.497462 2.942632 0.680250 0.824660 -0.033640 0.603570 11.974360 10.166888 5.539555 57.675240 10.010899 -2.978308 25.354467 27.645034 3.230961 1.790215 -1.581694 -0.458660 0.374950 0.306100 0.117710 
0.073450 17.284730 -1.206750 -3.758768 -2.576091 8.183769 -15.174346 12.565328 2.861335 -0.233086 -0.936228 -7.856330 -4.593169 3.080520 1.144093 -0.833419 4.369138 3.605562 0.043390 -0.393990 -0.276180 18.461371 -10.654841 2.965354 0.631113 0.383383 -8.002246 8.257125 -4.714475 2.667480 -0.485968 -4.098036 2.978532 -0.024120 1.285210 1.037590 -3.827092 -0.743975 -6.946551 8.894551 1.592217 1.530405 -2.228443 0.899356 6.752393 3.177556 -0.573625 -8.867389 -0.917022 6.328838 25.081720 -4.829400 5.353440 -5.513980 -17.762115 -9.245460 3.676912 -54.520669 -9.188405 1.082224 -23.366438 -19.424781 1.068274 -4.492241 2.947258 0.677070 0.821660 -0.031370 0.603080 11.983943 10.319595 5.585165 57.615746 10.038634 -2.990808 25.258085 27.601982 3.201762 1.795263 -1.581043 -0.453710 0.371230 0.304680 0.120540 
0.071010 17.284310 -1.206120 -3.677737 -2.605839 8.200540 -15.179459 12.560463 2.866228 -0.297980 -0.933903 -7.813798 -4.552707 3.061012 1.016669 -0.831888 4.370781 3.608683 0.034740 -0.399480 -0.284910 18.457626 -10.653413 2.959349 0.572927 0.387292 -8.039288 8.255305 -4.714104 2.687915 -0.479034 -4.101116 2.979551 -0.024500 1.293670 1.034380 -3.814307 -0.741321 -6.941945 8.694990 1.617977 1.476330 -2.107264 0.915201 6.757415 3.148769 -0.548317 -8.863200 -0.867033 6.314507 25.026304 -4.849120 5.349520 -5.318570 -17.671718 -9.179742 3.685276 -54.635199 -9.142632 1.042462 -23.375054 -19.604855 1.097126 -4.498174 2.944777 0.670350 0.828290 -0.038130 0.602920 11.966217 10.263353 5.557880 57.539106 10.070000 -2.927030 25.365507 27.562284 3.223360 1.795723 -1.582001 -0.458180 0.374630 0.308170 0.123390 
0.070180 17.283880 -1.205550 -3.677677 -2.646000 8.205978 -15.178950 12.556311 2.862784 -0.309802 -0.928214 -7.794056 -4.494619 3.054151 0.994462 -0.830501 4.377032 3.613734 0.019070 -0.412370 -0.301700 18.459487 -10.656236 2.958876 0.619369 0.386422 -8.048679 8.206672 -4.708059 2.688573 -0.468472 -4.107750 2.984923 -0.027630 1.311760 1.031460 -3.817529 -0.727725 -6.934979 8.679818 1.631491 1.403187 -2.067472 0.915689 6.819830 3.139771 -0.529986 -8.890505 -0.825675 6.345944 24.954350 -4.878660 5.378320 -4.930810 -17.562232 -9.222483 3.736840 -54.798303 -9.105316 0.991163 -23.281524 -19.739254 1.094257 -4.511639 2.939603 0.658820 0.842380 -0.051000 0.604920 11.881703 10.297491 5.561079 57.519446 10.135582 -2.869368 25.481618 27.529368 3.237466 1.793087 -1.583334 -0.465490 0.381130 0.315630 0.128330 
